<svg version="1.1" xmlns="http://www.w3.org/2000/svg" xmlns:xlink="http://www.w3.org/1999/xlink" width="139.10697" height="89.41734" viewBox="0,0,139.10697,89.41734"><g transform="translate(-170.44653,-135.29133)"><g data-paper-data="{&quot;isPaintingLayer&quot;:true}" fill-rule="nonzero" stroke-linejoin="miter" stroke-miterlimit="10" stroke-dasharray="" stroke-dashoffset="0" style="mix-blend-mode: normal"><path d="M171.44654,216.51869c0,-18.37085 0,-66.20891 0,-75.05346c0,-2.75761 2.06968,-5.1739 4.71291,-5.1739c12.1612,0 102.21817,0 125.96911,0c3.60989,0 6.42495,2.83125 6.42495,7.43682c0,17.66146 0,62.16997 0,72.41338c0,4.18893 -2.64102,7.56714 -7.17925,7.56714c-25.63977,0 -111.83766,0 -124.4605,0c-3.02777,0 -5.46722,-2.72442 -5.46722,-7.18999z" fill="#1e2f30" stroke="#9bf2fa" stroke-width="2" stroke-linecap="butt"/><path d="M180.26784,213.39167c0,-5.05532 0,-18.21947 0,-20.65332c0,-0.75885 1.84543,-1.42376 4.20226,-1.42376c10.84352,0 91.14268,0 112.32017,0c3.21875,0 5.72879,0.77911 5.72879,2.04647c0,4.86011 0,17.10802 0,19.92682c0,1.15272 -2.35485,2.08234 -6.40136,2.08234c-22.86167,0 -99.71987,0 -110.97501,0c-2.6997,0 -4.87484,-0.74971 -4.87484,-1.97855z" fill="#4c5151" stroke="#273e3f" stroke-width="2" stroke-linecap="butt"/><text transform="translate(217.09012,183.03108) scale(0.25259,0.25259)" font-size="40" xml:space="preserve" fill="#ffffff" fill-rule="nonzero" stroke="#000000" stroke-width="0" stroke-linecap="butt" stroke-linejoin="miter" stroke-miterlimit="10" stroke-dasharray="" stroke-dashoffset="0" font-family="Sans Serif" font-weight="normal" text-anchor="start" style="mix-blend-mode: normal"><tspan x="0" dy="0">Feedback</tspan></text><path d="M190.9702,154.66559h98.05979" fill="none" stroke="#487274" stroke-width="6.5" stroke-linecap="round"/></g></g></svg>