<svg version="1.1" xmlns="http://www.w3.org/2000/svg" xmlns:xlink="http://www.w3.org/1999/xlink" width="136.44737" height="136.76774" viewBox="0,0,136.44737,136.76774"><defs><linearGradient x1="240.00001" y1="111.45594" x2="240.00001" y2="248.22368" gradientUnits="userSpaceOnUse" id="color-1"><stop offset="0" stop-color="#409e9a"/><stop offset="1" stop-color="#316c77"/></linearGradient></defs><g transform="translate(-171.77632,-111.45594)"><g data-paper-data="{&quot;isPaintingLayer&quot;:true}" fill-rule="nonzero" stroke-linecap="butt" stroke-linejoin="miter" stroke-miterlimit="10" stroke-dasharray="" stroke-dashoffset="0" style="mix-blend-mode: normal"><path d="M171.77633,236.65266c0,-27.78017 0,-97.10402 0,-112.77311c0,-6.15007 5.89409,-12.42361 11.99733,-12.42361c15.43202,0 83.33616,0.19746 111.81283,0.28234c7.79621,0.02324 12.63721,5.9912 12.63721,12.14127c0,15.60919 0,84.46375 0,112.45273c0,7.35772 -5.89408,11.8914 -11.99731,11.8914c-15.49003,0 -83.8475,0 -112.13235,0c-7.60875,0 -12.31771,-4.4023 -12.31771,-11.57102z" fill="url(#color-1)" stroke="#000000" stroke-width="0"/><text transform="translate(198.14055,156.48289) scale(0.67944,0.67944)" font-size="40" xml:space="preserve" fill="#ffffff" fill-rule="nonzero" stroke="none" stroke-width="1" stroke-linecap="butt" stroke-linejoin="miter" stroke-miterlimit="10" stroke-dasharray="" stroke-dashoffset="0" font-family="Sans Serif" font-weight="normal" text-anchor="start" style="mix-blend-mode: normal"><tspan x="0" dy="0">Player</tspan></text><text transform="translate(224.16906,187.83904) scale(0.67944,0.67944)" font-size="40" xml:space="preserve" fill="#ffffff" fill-rule="nonzero" stroke="none" stroke-width="1" stroke-linecap="butt" stroke-linejoin="miter" stroke-miterlimit="10" stroke-dasharray="" stroke-dashoffset="0" font-family="Sans Serif" font-weight="normal" text-anchor="start" style="mix-blend-mode: normal"><tspan x="0" dy="0">VS</tspan></text><text transform="translate(199.47822,219.1952) scale(0.67944,0.67944)" font-size="40" xml:space="preserve" fill="#ffffff" fill-rule="nonzero" stroke="none" stroke-width="1" stroke-linecap="butt" stroke-linejoin="miter" stroke-miterlimit="10" stroke-dasharray="" stroke-dashoffset="0" font-family="Sans Serif" font-weight="normal" text-anchor="start" style="mix-blend-mode: normal"><tspan x="0" dy="0">Player</tspan></text></g></g></svg>